<svg xmlns="http://www.w3.org/2000/svg" version="1.1" xmlns:xlink="http://www.w3.org/1999/xlink" xmlns:svgjs="http://svgjs.dev/svgjs" width="100%" height="100%" viewBox="0 0 1000 600"><rect width="1000" height="600" x="0" y="0" fill="#295f2d"/><g><rect width="333.3333333333333" height="333.3333333333333" y="155.6471519294344" fill="#ffe67c" transform="matrix(0.9368562829830518,0,0,0.9368562829830516,0,-1.9617470183035408)" x="133.42491149902344"/><path d="M299.8840931352206 278.5753462989189L299.8840931352206 278.5753462989189Q284.1426696607758 298.3005395103057 277.17107262112717 318.0257327216925L277.17107262112717 318.0257327216925L277.3647280944507 318.0257327216925Q305.05746077972174 318.0257327216925 309.15189078713445 318.1363929921631Q313.2186557269295 318.2193881950161 313.63363174119434 317.83207724836893Q314.02094268784145 317.41710123410417 314.214598161165 316.8361348141334L314.214598161165 316.8361348141334Q310.83945991181133 292.3248849048926 308.84757504334027 283.4720632672435Q306.8556901748692 274.59157656197675 304.86380530639815 274.59157656197675Q302.87192043792714 274.59157656197675 299.8840931352206 278.5753462989189ZM282.15078479230476 372.41525565799907L282.15078479230476 372.41525565799907L286.54953054351165 371.6129686970871Q288.5414154119827 371.6129686970871 288.5414154119827 373.79850903888166L288.5414154119827 373.79850903888166Q288.5414154119827 380.7701060785304 285.7472435825997 385.5561627763843Q282.9530717532167 390.3422194742384 278.77564654295105 392.33410434270945L278.77564654295105 392.33410434270945Q271.997704976626 395.7092425920632 267.2116482787719 395.7092425920632L267.2116482787719 395.7092425920632Q258.05451089732867 395.7092425920632 253.46210967279825 388.8483058228851Q248.89737351588542 381.9597039860895 248.89737351588542 368.12717017726277Q248.89737351588542 354.26697130081845 256.4499369755048 332.1625822743134L256.4499369755048 332.1625822743134L244.91360377894335 332.1625822743134Q242.7280634371487 332.1625822743134 242.7280634371487 329.9770419325188Q242.7280634371487 327.7915015907241 246.10320168650242 322.89478462239947Q249.47833993585613 318.0257327216925 253.26845419947466 318.0257327216925L253.26845419947466 318.0257327216925L262.2319361075944 318.0257327216925Q276.3687856602152 286.542885772803 295.5130124516313 263.6362097853861L295.5130124516313 263.6362097853861Q300.49272462280896 257.6605551799729 307.74097233863415 252.48718753547175Q315.016885122077 247.31381989097054 319.00065485901905 247.31381989097054Q322.9844245959612 247.31381989097054 324.9763094644322 250.91027868126548L324.9763094644322 250.91027868126548Q330.14967710893336 259.2651291017968 337.121274148582 312.05007811627945L337.121274148582 312.05007811627945Q339.52813503131785 334.76309863037284 345.3931293662604 358.9700327958195Q351.28578876882057 383.1493018936485 356.2655009399981 387.1330716305906L356.2655009399981 387.1330716305906Q357.4550988475572 387.93535859150256 357.4550988475572 389.1249564990617L357.4550988475572 389.1249564990617Q357.4550988475572 392.1127838017683 348.9895881565553 394.7133001578277Q340.5240774655534 397.313816513887 336.04233651149355 397.313816513887Q331.56059555743366 397.313816513887 329.15373467469783 396.207213809181Q326.77453885957965 395.10061110447475 326.16590737199124 393.91101319691575L326.16590737199124 393.91101319691575Q322.597113649314 386.1371291963551 319.00065485901905 356.86748765687787L319.00065485901905 356.86748765687787L317.81105695145993 347.51669480211103Q317.008769990548 338.1382368797265 316.20648302963605 333.35218018187254L316.20648302963605 333.35218018187254L314.8232296487534 332.356237747637L273.1873028841851 332.1625822743134Q270.80810706906686 342.3156620899922 270.80810706906686 349.89589061722916Q270.80810706906686 357.4761191444662 271.30607828618463 360.9619176642906Q271.8040495033024 364.4477161841148 274.5982213326854 368.43148592105695Q277.3647280944507 372.41525565799907 282.15078479230476 372.41525565799907Z " fill="#295f2d" transform="matrix(0.9368562829830518,0,0,0.9368562829830516,0,-1.9617470183035408)"/><path d="M592.329551539483 270.415903355509L592.329551539483 270.415903355509Q580.6967320212943 284.99270531766814 575.544762744346 299.5695072798273L575.544762744346 299.5695072798273L575.687873002039 299.5695072798273Q596.1526398521391 299.5695072798273 599.1783995862198 299.6512845699376Q602.183714997773 299.7126175375203 602.4903798356866 299.4263970221343Q602.7766003510726 299.1197321842207 602.9197106087656 298.6904014111417L602.9197106087656 298.6904014111417Q600.4255032604017 280.5767316517125 598.9535120384164 274.03454844288933Q597.4815208164313 267.4719209115386 596.0095295944461 267.4719209115386Q594.5375383724609 267.4719209115386 592.329551539483 270.415903355509ZM579.2247407993091 339.76304536903467L579.2247407993091 339.76304536903467L582.4753880811932 339.1701600157352Q583.9473793031783 339.1701600157352 583.9473793031783 340.78526149541335L583.9473793031783 340.78526149541335Q583.9473793031783 345.93723077236166 581.8825027278936 349.4740985696317Q579.8176261526087 353.0109663669017 576.7305334509452 354.48295758888685L576.7305334509452 354.48295758888685Q571.72167443169 356.9771649372508 568.1848066344199 356.9771649372508L568.1848066344199 356.9771649372508Q561.4177358777935 356.9771649372508 558.0239783382165 351.90697295041275Q554.650665121167 346.8163366410472 554.650665121167 336.59417537726097Q554.650665121167 326.3515697909472 560.2319651711942 310.0165560914168L560.2319651711942 310.0165560914168L551.7066826771966 310.0165560914168Q550.0915811975183 310.0165560914168 550.0915811975183 308.40145461173864Q550.0915811975183 306.7863531320604 552.5857885458822 303.16770804468007Q555.0799958942459 299.5695072798273 557.8808680805234 299.5695072798273L557.8808680805234 299.5695072798273L564.5048285794569 299.5695072798273Q574.9518773910464 276.30386824344987 589.0993485801266 259.3759691906199L589.0993485801266 259.3759691906199Q592.7793266350895 254.95999552466424 598.1357391373135 251.13690721200817Q603.5125959620652 247.3138188993521 606.4565784060355 247.3138188993521Q609.4005608500061 247.3138188993521 610.8725520719912 249.97158082793655L610.8725520719912 249.97158082793655Q614.6956403846473 256.14576623126345 619.8476096615956 295.1535336138717L619.8476096615956 295.1535336138717Q621.6262657214943 311.9383224090086 625.9604620973397 329.8271046206345Q630.3151027957126 347.69544250973286 633.9950808506757 350.63942495370327L633.9950808506757 350.63942495370327Q634.8741867193613 351.2323103070029 634.8741867193613 352.11141617568853L634.8741867193613 352.11141617568853Q634.8741867193613 354.3194030086663 628.6182240259241 356.24116932625816Q622.3622613324869 358.1629356438499 619.0502810830202 358.1629356438499Q615.7383008335535 358.1629356438499 613.9596447736546 357.345162742747Q612.2014330362834 356.5273898416441 611.7516579406769 355.64828397295855L611.7516579406769 355.64828397295855Q609.11434033462 349.90342934271064 606.4565784060355 328.27333610853896L606.4565784060355 328.27333610853896L605.57747253735 321.36315509421956Q604.9845871840504 314.43252975737244 604.3917018307508 310.8956619601025L604.3917018307508 310.8956619601025L603.3694857043722 310.15966634910984L572.6007803003756 310.0165560914168Q570.8425685630043 317.5196224590359 570.8425685630043 323.12136683159076Q570.8425685630043 328.72311120414565 571.2105663685006 331.29909584261975Q571.5785641739969 333.87508048109385 573.6434407492818 336.81906292506426Q575.687873002039 339.76304536903467 579.2247407993091 339.76304536903467ZM685.0649985245517 337.84127905144294L685.0649985245517 337.84127905144294Q685.0649985245517 346.2234512877476 678.3592607355079 351.7434183701922Q671.6739672689918 357.2633854526367 662.3922448414738 357.2633854526367L662.3922448414738 357.2633854526367Q648.8581033282209 357.2633854526367 642.5203633446733 349.10610076413536Q636.2030676836534 340.9283717531064 636.2030676836534 326.94445514424683L636.2030676836534 326.94445514424683Q636.2030676836534 312.08143266670163 642.827028182587 300.591723406206L642.827028182587 300.591723406206Q646.0572311419435 294.7037585182651 652.0883062875773 291.3304453012156Q658.1193814332112 287.9366877616386 666.2153331541299 287.9366877616386L666.2153331541299 287.9366877616386Q678.4410380256181 287.9366877616386 683.4498970448735 296.1757497402503L683.4498970448735 296.1757497402503Q685.5147736201583 299.5695072798273 685.5147736201583 304.128591203476L685.5147736201583 304.128591203476Q685.5147736201583 311.20232679801603 679.6268087322173 314.739194595286L679.6268087322173 314.739194595286Q677.255267319019 316.0476312370507 675.2721680338445 316.0476312370507Q673.2890687486699 316.0476312370507 672.041965074488 315.84318801177494Q670.7948614003061 315.61830046397165 668.7299848250213 313.8396444040728Q666.6651082497365 312.08143266670163 666.6651082497365 308.99433996503825L666.6651082497365 308.99433996503825Q666.8082185074295 307.37923848536 669.1593155981003 306.3365780364538L669.1593155981003 306.3365780364538Q671.3673024310781 305.0076970721616 671.3673024310781 301.63438385511216L671.3673024310781 301.63438385511216Q671.3673024310781 295.88952922486425 664.3140111590657 295.88952922486425L664.3140111590657 295.88952922486425Q662.5353550991668 295.88952922486425 660.1229250409133 297.4432977369598Q657.6900506601321 298.97662192652774 656.0749491804539 301.40949630730887Q654.4394033782481 303.84237068808994 653.0491894463732 309.05567293262095Q651.6589755144983 314.2894194996794 651.6589755144983 319.0733909711314Q651.6589755144983 323.8573624425834 652.0269733199946 326.29023682336447Q652.3949711254909 328.72311120414565 653.6420747996729 332.9141973222979Q654.8891784738547 337.1052834404503 658.3442689810145 339.76304536903467Q661.7993594881742 342.4003629750915 666.9513287651225 342.4003629750915L666.9513287651225 342.4003629750915Q673.1459584909769 342.4003629750915 677.8481526723186 337.24839369814333L677.8481526723186 337.24839369814333Q679.7699189899104 335.18351712285846 680.9352453739821 332.23953467888805L680.9352453739821 332.23953467888805Q681.5281307272817 331.07420829481646 682.4072365959672 331.07420829481646L682.4072365959672 331.07420829481646Q683.7361175602595 331.07420829481646 684.4107802036693 333.50708267559753Q685.0649985245517 335.9195127338511 685.0649985245517 337.84127905144294ZM690.6667428971066 297.3615204468495L690.6667428971066 297.3615204468495L691.0960736701855 291.47355555890863Q691.2391839278786 290.14467459461645 693.1609502454704 290.14467459461645L693.1609502454704 290.14467459461645L698.3129195224186 290.14467459461645L697.7200341691191 278.3687448187347L697.7200341691191 277.7758594654351Q697.7200341691191 274.40254624838565 702.8720034460673 271.3154535467222Q708.0239727230155 268.20791652253115 712.2968361312783 268.20791652253115L712.2968361312783 268.20791652253115Q713.6257170955704 268.20791652253115 713.6257170955704 269.39368722913036L713.6257170955704 269.39368722913036L713.6257170955704 269.5367974868234Q713.0328317422708 273.5234403797 712.4399463889712 290.0015643369234L712.4399463889712 290.0015643369234Q718.9207966302117 290.0015643369234 720.6790083675829 289.7153438215374Q722.4576644274817 289.4086789836238 722.6007746851747 289.4086789836238L722.6007746851747 289.4086789836238Q723.6229908115533 289.4086789836238 723.6229908115533 291.18733504352264Q723.6229908115533 292.94554678089384 722.007889331875 295.66464167706096Q720.3927878521969 298.38373657322813 718.471021534605 298.5472911534487L718.471021534605 298.5472911534487L712.2968361312783 298.5472911534487Q712.1537258735851 303.5357058501764 712.1537258735851 315.39341291616836Q712.1537258735851 327.2511199821604 712.3786134213885 334.8972966074725Q712.5830566466642 342.54347323278455 712.8897214845778 346.4483388355509Q713.1759419999638 350.3532044383172 713.5439398054601 352.70430152898814Q713.9119376109564 355.05539861965894 714.1368251587597 356.09805906856514Q714.361712706563 357.1202751949437 714.361712706563 357.4269400328574L714.361712706563 357.4269400328574Q714.361712706563 358.8989312548425 712.4399463889712 359.04204151253555L712.4399463889712 359.04204151253555Q706.6950917587233 359.04204151253555 701.0320144185857 357.4269400328574Q695.3689370784482 355.7913942306516 695.3689370784482 351.8251956603025L695.3689370784482 351.8251956603025Q698.4560297801116 327.08756540193986 698.4560297801116 298.6904014111417L698.4560297801116 298.6904014111417Q694.4898312097625 298.6904014111417 692.4249546344778 298.97662192652774L692.4249546344778 298.97662192652774L692.2818443767848 298.97662192652774Q690.9529634124925 298.97662192652774 690.6667428971066 297.3615204468495ZM741.0006649599899 276.0176477280638L741.0006649599899 276.0176477280638L737.4637971627199 275.8745374703708Q733.4975985923709 275.8745374703708 732.3118278857717 277.7758594654351L732.3118278857717 277.7758594654351Q732.0256073703856 278.2256345610417 731.575832274779 278.2256345610417L731.575832274779 278.2256345610417Q729.6745102797148 278.2256345610417 729.6745102797148 271.6834513522185Q729.6745102797148 265.1208238208677 731.6576095648893 263.3626120834965Q733.6407088500639 261.5839560235977 738.5677905792088 261.5839560235977Q743.4948723083537 261.5839560235977 745.2735283682525 263.2808347933862Q747.0317401056238 264.9777135631747 747.0317401056238 268.9439121335238Q747.0317401056238 272.9305550264004 745.7028591413316 274.46387921596835Q744.394422499567 276.0176477280638 741.0006649599899 276.0176477280638ZM729.2247351841082 350.3532044383172L729.2247351841082 350.3532044383172L730.8398366637864 316.0476312370507Q730.8398366637864 303.84237068808994 728.038964477509 299.4263970221343L728.038964477509 299.4263970221343Q727.1598586088234 297.9544058001491 725.9945322247518 297.2184101891565L725.9945322247518 297.2184101891565Q725.0949820335385 296.9117453512429 725.0949820335385 296.0326394825573L725.0949820335385 296.0326394825573Q725.0949820335385 293.3953218765004 732.6184927236852 290.880670205609Q740.1215590913043 288.3864628572452 743.5766495984641 288.3864628572452Q747.0317401056238 288.3864628572452 747.1748503633169 290.14467459461645L747.1748503633169 290.14467459461645Q747.1748503633169 293.08865703858686 746.3775217847415 306.8476860996431Q745.5597488836386 320.62715948322693 745.5597488836386 335.77640247615807Q745.5597488836386 350.9460897916168 747.3384049435374 354.6260678465799L747.3384049435374 354.6260678465799Q747.7677357166164 355.3620634575725 747.7677357166164 356.09805906856514L747.7677357166164 356.09805906856514Q747.7677357166164 357.99938106362936 742.1864356665891 357.99938106362936Q736.5846912940342 357.99938106362936 730.6967264060934 355.05539861965894L730.6967264060934 355.05539861965894Q729.2247351841082 354.3194030086663 729.2247351841082 350.3532044383172ZM789.9443730909984 291.18733504352264Q796.2003357844355 288.0797980193316 802.3745211877624 288.0797980193316Q808.5691509136169 288.0797980193316 808.5691509136169 300.89838824411953L808.5691509136169 300.89838824411953Q808.5691509136169 310.32322092933043 805.1140604064572 320.0342741299273Q801.6385255767698 329.7453273305242 796.4865562998216 337.1052834404503L796.4865562998216 337.1052834404503Q785.896397230539 352.5611912712951 777.3506704140137 357.7131605482433L777.3506704140137 357.7131605482433Q775.3062381612565 358.8989312548425 774.2635777123503 358.8989312548425Q773.2413615859717 358.8989312548425 772.1373681694828 356.69094442186474Q771.0333747529938 354.48295758888685 768.7436106299058 346.9594468987402Q766.4742908293451 339.4563805311211 765.00229960736 333.5684156431803L765.00229960736 333.5684156431803L763.6734186430677 327.53734049754644Q760.7294361990973 314.57564001506546 757.92856401282 306.8476860996431Q755.1276918265426 299.1197321842207 753.7988108622503 297.9544058001491L753.7988108622503 297.9544058001491L752.3268196402651 296.6255248358569Q750.8548284182798 295.88952922486425 750.8548284182798 294.8673130984857L750.8548284182798 294.8673130984857L751.5908240292724 293.53843213419344Q753.5125903468643 291.7597760742946 758.0103413029302 289.9197870468131Q762.4876479364685 288.0797980193316 767.9462820513304 288.0797980193316L767.9462820513304 288.0797980193316Q770.4404893996942 288.0797980193316 771.0333747529938 290.880670205609L771.0333747529938 290.880670205609Q773.2413615859717 297.6477409622355 774.8564630656499 306.7863531320604Q776.4715645453282 315.9045209793577 779.1906594414952 327.3942302398534Q781.93019866019 338.8634951778215 783.6884103975613 339.02704975804215L783.6884103975613 339.02704975804215Q784.5675162662468 339.02704975804215 785.6715096827357 337.6981687937499Q786.7755030992246 336.3692878294577 788.3292716113201 334.1613009964799Q789.8625958008881 331.9533141635021 792.1523599239762 325.6155741799546Q794.4421240470643 319.2982785189347 794.4421240470643 314.80052756286875Q794.4421240470643 310.32322092933043 794.074126241568 307.8903465485493Q793.7061284360717 305.4574721677682 791.4981416030939 302.22726920841177Q789.290154770116 298.97662192652774 786.4892825838386 298.4655138633384Q783.6884103975613 297.9544058001491 783.6884103975613 296.6255248358569L783.6884103975613 296.6255248358569Q783.6884103975613 294.2744277451861 789.9443730909984 291.18733504352264ZM828.8703631834964 276.0176477280638L828.8703631834964 276.0176477280638L825.3539397087538 275.8745374703708Q821.3672968158772 275.8745374703708 820.2019704318056 277.7758594654351L820.2019704318056 277.7758594654351Q819.8953055938921 278.2256345610417 819.465974820813 278.2256345610417L819.465974820813 278.2256345610417Q817.5442085032212 278.2256345610417 817.5442085032212 271.6834513522185Q817.5442085032212 265.1208238208677 819.5273077883958 263.3626120834965Q821.5104070735701 261.5839560235977 826.4579331252428 261.5839560235977Q831.3850148543877 261.5839560235977 833.143226591759 263.2808347933862Q834.9218826516578 264.9777135631747 834.9218826516578 268.9439121335238Q834.9218826516578 272.9305550264004 833.5930016873656 274.46387921596835Q832.2641207230733 276.0176477280638 828.8703631834964 276.0176477280638ZM817.0944334076146 350.3532044383172L817.0944334076146 350.3532044383172L818.7299792098204 316.0476312370507Q818.7299792098204 303.84237068808994 815.9291070235429 299.4263970221343L815.9291070235429 299.4263970221343Q815.0500011548573 297.9544058001491 813.8642304482582 297.2184101891565L813.8642304482582 297.2184101891565Q812.9851245795726 296.9117453512429 812.9851245795726 296.0326394825573L812.9851245795726 296.0326394825573Q812.9851245795726 293.3953218765004 820.4881909471916 290.880670205609Q827.9912573148108 288.3864628572452 831.4463478219704 288.3864628572452Q834.9218826516578 288.3864628572452 835.0649929093508 290.14467459461645L835.0649929093508 290.14467459461645Q835.0649929093508 293.08865703858686 834.247220008248 306.8476860996431Q833.4498914296726 320.62715948322693 833.4498914296726 335.77640247615807Q833.4498914296726 350.9460897916168 835.2081031670439 354.6260678465799L835.2081031670439 354.6260678465799Q835.6578782626505 355.3620634575725 835.6578782626505 356.09805906856514L835.6578782626505 356.09805906856514Q835.6578782626505 357.99938106362936 830.0561338900955 357.99938106362936Q824.4543895175407 357.99938106362936 818.5664246295999 355.05539861965894L818.5664246295999 355.05539861965894Q817.0944334076146 354.3194030086663 817.0944334076146 350.3532044383172ZM842.4249490192769 297.3615204468495L842.4249490192769 297.3615204468495L842.8542797923558 291.47355555890863Q843.0178343725765 290.14467459461645 844.9191563676407 290.14467459461645L844.9191563676407 290.14467459461645L850.0711256445888 290.14467459461645L849.4782402912894 278.3687448187347L849.4782402912894 277.7758594654351Q849.4782402912894 274.40254624838565 854.6302095682377 271.3154535467222Q859.7821788451859 268.20791652253115 864.0550422534485 268.20791652253115L864.0550422534485 268.20791652253115Q865.3839232177407 268.20791652253115 865.3839232177407 269.39368722913036L865.3839232177407 269.39368722913036L865.3839232177407 269.5367974868234Q864.7910378644411 273.5234403797 864.1981525111416 290.0015643369234L864.1981525111416 290.0015643369234Q870.6790027523821 290.0015643369234 872.4576588122808 289.7153438215374Q874.215870549652 289.4086789836238 874.358980807345 289.4086789836238L874.358980807345 289.4086789836238Q875.4016412562512 289.4086789836238 875.4016412562512 291.18733504352264Q875.4016412562512 292.94554678089384 873.7660954540454 295.66464167706096Q872.1509939743672 298.38373657322813 870.249671979303 298.5472911534487L870.249671979303 298.5472911534487L864.0550422534485 298.5472911534487Q863.9119319957556 303.5357058501764 863.9119319957556 315.39341291616836Q863.9119319957556 327.2511199821604 864.1368195435589 334.8972966074725Q864.3617070913622 342.54347323278455 864.6479276067481 346.4483388355509Q864.934148122134 350.3532044383172 865.3021459276305 352.70430152898814Q865.6701437331268 355.05539861965894 865.8950312809301 356.09805906856514Q866.1199188287334 357.1202751949437 866.1199188287334 357.4269400328574L866.1199188287334 357.4269400328574Q866.1199188287334 358.8989312548425 864.1981525111416 359.04204151253555L864.1981525111416 359.04204151253555Q858.4737422034212 359.04204151253555 852.7902205407561 357.4269400328574Q847.1271432006185 355.7913942306516 847.1271432006185 351.8251956603025L847.1271432006185 351.8251956603025Q850.214235902282 327.08756540193986 850.214235902282 298.6904014111417L850.214235902282 298.6904014111417Q846.2480373319329 298.6904014111417 844.1831607566481 298.97662192652774L844.1831607566481 298.97662192652774L844.0400504989551 298.97662192652774Q842.7111695346629 298.97662192652774 842.4249490192769 297.3615204468495ZM905.1276862113416 395.53515722425243L905.1276862113416 395.53515722425243Q905.1276862113416 397.31381328415114 903.3694744739704 397.31381328415114L903.3694744739704 397.31381328415114L903.2059198937498 397.31381328415114Q898.3606154547151 397.31381328415114 892.247763018971 393.92005574457414Q886.1349105832268 390.54674252752466 886.1349105832268 386.1307688615691Q886.1349105832268 381.7147951956134 891.7366549557817 370.73619399830704Q897.3179550058089 359.7780371235282 897.3179550058089 356.09805906856514L897.3179550058089 356.09805906856514Q897.3179550058089 352.11141617568853 893.4948666931529 341.8074776217919L893.4948666931529 341.8074776217919Q888.6495622541181 328.416446366232 885.7669127777305 320.0342741299273Q882.9047076238703 311.63165757109505 879.5927273744036 305.2325846199649Q876.2807471249369 298.8335116688347 874.8087559029516 297.6477409622355L874.8087559029516 297.6477409622355L873.3367646809664 296.6255248358569Q871.7216632012882 295.7464189671713 871.7216632012882 294.7037585182651L871.7216632012882 294.7037585182651Q871.7216632012882 292.65932626550784 878.1207361524183 290.5126724001127Q884.5198091035486 288.3864628572452 889.3855578651109 288.3864628572452L889.3855578651109 288.3864628572452Q891.5935446980886 288.3864628572452 893.0655359200739 291.9233306545152L893.0655359200739 291.9233306545152Q895.7028535261306 298.8335116688347 898.7899462277942 311.059216540323L898.7899462277942 311.059216540323Q906.3134569179408 336.08306731407174 908.214778913005 336.08306731407174L908.214778913005 336.08306731407174Q909.5436598772972 336.08306731407174 913.5916357377566 325.7791287601751Q917.6396115982159 315.4751902062786 917.6396115982159 309.1374502227312L917.6396115982159 309.1374502227312Q917.6396115982159 298.0975160578421 911.1587613569754 296.1757497402503L911.1587613569754 296.1757497402503Q909.6867701349902 295.88952922486425 909.6867701349902 294.7037585182651L909.6867701349902 294.7037585182651Q909.6867701349902 292.06644091220824 916.6173954718373 289.6335665314271Q923.5275764861568 287.200692150646 929.1293208587117 287.200692150646L929.1293208587117 287.200692150646Q933.9746252977463 287.200692150646 933.9746252977463 293.53843213419344L933.9746252977463 293.53843213419344Q933.9746252977463 298.38373657322813 931.9097487224615 304.86458681446857Q929.8653164697043 311.34543705570906 928.0866604098055 315.1071924007823Q926.3284486724342 318.8485034233281 919.3364903680044 332.46442222669134Q912.3445320635747 346.08034103005457 907.7854481399261 356.3842795839512L907.7854481399261 356.3842795839512Q902.7765891206707 368.75309471313244 902.7765891206707 381.55124061539277L902.7765891206707 381.55124061539277Q902.7765891206707 388.3387556945469 903.9419155047424 391.71206891159636Q905.1276862113416 395.10582645117336 905.1276862113416 395.53515722425243Z " fill="#ffe67c" transform="matrix(0.9368562829830518,0,0,0.9368562829830516,0,-1.9617470183035408)"/></g></svg>